<svg xmlns="http://www.w3.org/2000/svg" viewBox="0 0 177.13 80.35"><defs><style>.cls-1{fill:#ed1c24;}.cls-2{fill:#fff;}</style></defs><title>Asset 2</title><g id="Layer_2" data-name="Layer 2"><g id="Layer_1-2" data-name="Layer 1"><path class="cls-1" d="M7.75,74.42l1.36.35a4.65,4.65,0,0,1-1.54,2.57,4.25,4.25,0,0,1-2.72.89,4.84,4.84,0,0,1-2.71-.69,4.31,4.31,0,0,1-1.59-2A7.14,7.14,0,0,1,0,72.79,6.11,6.11,0,0,1,.63,70a4.17,4.17,0,0,1,1.74-1.83,5.07,5.07,0,0,1,2.5-.63,4.22,4.22,0,0,1,2.59.79,4.1,4.1,0,0,1,1.47,2.23l-1.34.32a3.23,3.23,0,0,0-1-1.65,2.76,2.76,0,0,0-1.71-.52,3.32,3.32,0,0,0-2,.58A3,3,0,0,0,1.74,70.8a6.06,6.06,0,0,0-.32,2,6.23,6.23,0,0,0,.38,2.3A2.79,2.79,0,0,0,3,76.56a3.28,3.28,0,0,0,1.75.49,2.92,2.92,0,0,0,1.93-.66,3.41,3.41,0,0,0,1.08-2"/><polygon class="cls-1" points="10.82 78.05 10.82 67.69 12.19 67.69 12.19 71.95 17.54 71.95 17.54 67.69 18.9 67.69 18.9 78.05 17.54 78.05 17.54 73.16 12.19 73.16 12.19 78.05 10.82 78.05"/><path class="cls-1" d="M30.39,69.17V67.69h1.36v1.16a3.48,3.48,0,0,1-.25,1.55,2.53,2.53,0,0,1-2.22,1.3v2a7.13,7.13,0,0,1-.35,2.49,3.15,3.15,0,0,1-1.27,1.49,4.49,4.49,0,0,1-2.4.58c-1.92,0-3.14-.66-3.68-2a7,7,0,0,1-.39-2.6v-6h1.36v6a5.86,5.86,0,0,0,.25,2,1.85,1.85,0,0,0,.85,1,2.88,2.88,0,0,0,1.49.35,2.8,2.8,0,0,0,2.14-.68,4.14,4.14,0,0,0,.64-2.64v-6h1.36v3.48a2,2,0,0,0,1.58-.87,2.28,2.28,0,0,0,.19-1.13Zm-6-2.12.94-2H27l-1.54,2Z"/><polygon class="cls-1" points="33.42 78.05 33.42 67.69 34.82 67.69 40.23 75.82 40.23 67.69 41.53 67.69 41.53 78.05 40.13 78.05 34.73 69.91 34.73 78.05 33.42 78.05"/><path class="cls-1" d="M48.63,74V72.77H53v3.85a7.61,7.61,0,0,1-2.07,1.21,6.12,6.12,0,0,1-2.19.41A5.73,5.73,0,0,1,46,77.57a4.22,4.22,0,0,1-1.87-1.89,5.85,5.85,0,0,1-.64-2.76,6.48,6.48,0,0,1,.63-2.83,4.17,4.17,0,0,1,1.81-1.94,5.55,5.55,0,0,1,2.72-.64,5.18,5.18,0,0,1,2,.37,3.36,3.36,0,0,1,1.42,1,4.55,4.55,0,0,1,.78,1.7l-1.23.34A3.94,3.94,0,0,0,51,69.68a2.32,2.32,0,0,0-1-.72,3.63,3.63,0,0,0-1.42-.27A4.14,4.14,0,0,0,47,69a3,3,0,0,0-1.1.76,3.68,3.68,0,0,0-.65,1,5.46,5.46,0,0,0-.39,2.08,5,5,0,0,0,.47,2.32,3.14,3.14,0,0,0,1.38,1.39,4.27,4.27,0,0,0,1.92.45,5,5,0,0,0,3-1.07V74Z"/><polygon class="cls-1" points="58.94 78.05 58.94 67.69 60.3 67.69 60.3 72.82 65.41 67.69 67.25 67.69 62.94 71.89 67.44 78.05 65.64 78.05 61.98 72.81 60.3 74.46 60.3 78.05 58.94 78.05"/><polygon class="cls-1" points="68.62 78.05 68.62 67.69 69.98 67.69 69.98 71.95 75.33 71.95 75.33 67.69 76.69 67.69 76.69 78.05 75.33 78.05 75.33 73.16 69.98 73.16 69.98 78.05 68.62 78.05"/><path class="cls-1" d="M78.54,73a5.61,5.61,0,0,1,1.38-4,4.64,4.64,0,0,1,3.55-1.46,4.87,4.87,0,0,1,2.57.68,4.53,4.53,0,0,1,1.74,1.91,6.27,6.27,0,0,1,.6,2.78,6.1,6.1,0,0,1-.63,2.82A4.37,4.37,0,0,1,86,77.59a5.14,5.14,0,0,1-2.5.64,4.84,4.84,0,0,1-2.59-.71,4.52,4.52,0,0,1-1.74-1.93A5.92,5.92,0,0,1,78.54,73M80,73a4.15,4.15,0,0,0,1,3,3.49,3.49,0,0,0,5,0,4.45,4.45,0,0,0,1-3.09,5.22,5.22,0,0,0-.43-2.21,3.26,3.26,0,0,0-1.24-1.47,3.37,3.37,0,0,0-1.83-.52,3.45,3.45,0,0,0-2.49,1A4.46,4.46,0,0,0,80,73"/><path class="cls-1" d="M89,78.05,93,67.69h1.47l4.21,10.36H97.09l-1.21-3.14h-4.3l-1.13,3.14Zm3-4.25h3.49l-1.08-2.87c-.33-.88-.57-1.59-.73-2.15a13.3,13.3,0,0,1-.55,2Zm.85-6.75.93-2h1.66l-1.55,2Z"/><polygon class="cls-1" points="99.71 78.05 99.71 67.69 101.11 67.69 106.51 75.82 106.51 67.69 107.81 67.69 107.81 78.05 106.42 78.05 101.02 69.91 101.02 78.05 99.71 78.05"/><polygon class="cls-1" points="116.45 78.05 116.45 68.91 113.07 68.91 113.07 67.69 121.22 67.69 121.22 68.91 117.82 68.91 117.82 78.05 116.45 78.05"/><path class="cls-1" d="M121.49,78.05l4-10.36h1.46l4.22,10.36h-1.55l-1.2-3.14h-4.31l-1.13,3.14Zm4.68-12.2-.8,1.2h-1.44l1.51-2h1.35l1.58,2h-1.43Zm-1.71,8h3.48l-1.07-2.87c-.33-.88-.57-1.59-.73-2.15a14.63,14.63,0,0,1-.55,2Z"/><polygon class="cls-1" points="132.19 78.05 132.19 67.69 133.59 67.69 138.99 75.82 138.99 67.69 140.3 67.69 140.3 78.05 138.9 78.05 133.5 69.91 133.5 78.05 132.19 78.05"/><path class="cls-1" d="M149.52,78.05l-4-10.36H147l2.68,7.52c.21.61.39,1.17.54,1.7.16-.56.34-1.13.56-1.7l2.77-7.52h1.39l-4,10.36Z"/><rect class="cls-1" x="156.4" y="67.69" width="1.36" height="10.36"/><path class="cls-1" d="M160.19,78.05V67.69h7.43v1.22h-6.07v3.17h5.69V73.3h-5.69v3.53h6.31v1.22Zm3.11.85h1.44v1.45H163.3Z"/><polygon class="cls-1" points="172.36 78.05 172.36 68.91 168.97 68.91 168.97 67.69 177.13 67.69 177.13 68.91 173.72 68.91 173.72 78.05 172.36 78.05"/><path class="cls-1" d="M52,30.06,28.64,53.37h0L11.19,35.93l17.69-17.7,3.33,3.25L18,35.68,28.63,46.39,49.84,25.22h7.32A28.7,28.7,0,0,0,0,27.32H5.34l1.09-1.09L28.63,4,44.48,19.88l1.6,1.59L28.39,39.17l-3.24-3.24,14.2-14.21L28.63,11,7.49,32.15H.17a28.7,28.7,0,0,0,57.16-2.1Z"/><path class="cls-2" d="M62.49,14.57l.66-4.14h31l2,4.23a41.82,41.82,0,0,0-10.26-1.3h-3V40c0,.27,0,.7,0,1.27a30.39,30.39,0,0,0,.81,5.55H73.6A25.83,25.83,0,0,0,74.46,40V13.36h-3a50.83,50.83,0,0,0-5.61.56c-.3,0-.77.1-1.41.2l-.91.2Z"/><path class="cls-2" d="M96.12,10.43h11.51a12.51,12.51,0,0,0,.71,5l.5,1.47.66,1.66,7.77,20.19,7.22-22.41a11.2,11.2,0,0,0,.55-3.23,7.73,7.73,0,0,0-.5-2.63h8.33a16.47,16.47,0,0,0-2.88,5l-.25.71-1,2.37q-.55,1.26-2.38,6.11-5.23,13.93-7.82,22.21H111q-2.67-8.07-8.48-22.21c-.61-1.31-1.46-3.33-2.57-6.06l-.15-.4-.16-.35-2.12-4.7c-.26-.57-.74-1.45-1.41-2.63"/><path class="cls-2" d="M134.72,44.75l.9-5a16.39,16.39,0,0,0,3,2.16,14.54,14.54,0,0,0,7.22,2.22,7.06,7.06,0,0,0,4.54-1.48,4.92,4.92,0,0,0,1.87-4.07q0-2.73-4.79-5.65L144,30.83a24.78,24.78,0,0,1-6.71-5.35,8.69,8.69,0,0,1-1.82-5.35,8.87,8.87,0,0,1,2.93-6.94c2-1.84,4.81-2.92,8.48-3.26a29.61,29.61,0,0,1,7,.4l1.46.31,1.21.2,2.17.25.61,5.35-.66-.45-.71-.46a15.09,15.09,0,0,0-8.12-2.82,6.3,6.3,0,0,0-4,1.26A4.42,4.42,0,0,0,144,17.7a4.76,4.76,0,0,0,.76,2.58q1.07,1.81,5.65,4.44c.34.17.84.44,1.52.81s1.22.69,1.66,1a27.27,27.27,0,0,1,4.39,3A8.49,8.49,0,0,1,160.88,36a9.78,9.78,0,0,1-1.64,5.35,12.17,12.17,0,0,1-4.72,4.19,19.2,19.2,0,0,1-9.69,1.91,26.42,26.42,0,0,1-6.21-1.26l-1.56-.5-.86-.3Z"/><path class="cls-2" d="M166.89,46.78A18.69,18.69,0,0,0,167.7,42l.05-.26.05-2.68-.05-23.77a15.82,15.82,0,0,0-.86-4.9H177a16.05,16.05,0,0,0-.81,4.9l0,3.08.1,23.57a19.13,19.13,0,0,0,.76,4.8Z"/><polygon class="cls-1" points="164.24 65.85 163.45 67.05 162 67.05 163.52 65.07 164.87 65.07 166.45 67.05 165.02 67.05 164.24 65.85"/></g></g></svg>